HIERARCHY
ROOT Hips
{
	OFFSET 0.00000 0.00000 0.00000
	CHANNELS 6 Xposition Yposition Zposition Zrotation Yrotation Xrotation 
	JOINT RightUpLegDummy
	{
		OFFSET 0 0 0
		CHANNELS 3 Zrotation Yrotation Xrotation
		JOINT RightUpLeg
		{
			OFFSET -3.52197 -3.41223 0.04002
			CHANNELS 3 Zrotation Yrotation Xrotation
			JOINT RightLeg
			{
				OFFSET 0.00006 -17.42390 1.60435
				CHANNELS 3 Zrotation Yrotation Xrotation
				JOINT RightFoot
				{
					OFFSET 0.06153 -16.50078 -1.63901
					CHANNELS 3 Zrotation Yrotation Xrotation
					JOINT RightToes
					{
						OFFSET 0.00298 -1.73825 3.34613
						CHANNELS 3 Zrotation Yrotation Xrotation
						End Site
						{
							OFFSET 0.00480 -0.05416 3.85043
						}
					}
				}
			}
		}
	}
	JOINT SpineDummy
	{
		OFFSET 0 0 0
		CHANNELS 3 Zrotation Yrotation Xrotation
		JOINT Spine
		{
			OFFSET 0.00000 4.68130 0.00000
			CHANNELS 3 Zrotation Yrotation Xrotation
			JOINT Spine1
			{
				OFFSET -0.00000 10.10138 0.05002
				CHANNELS 3 Zrotation Yrotation Xrotation
				JOINT HEadDummy
				{
					OFFSET 0 0 0
					CHANNELS 3 Zrotation Yrotation Xrotation
					JOINT Head
					{
						OFFSET -0.00000 3.43865 0.00438
						CHANNELS 3 Zrotation Yrotation Xrotation
						End Site
						{
							OFFSET -0.11417 5.02924 0.98962
						}
					}
				}
				JOINT LeftShoulder1Dummy
				{
					OFFSET 0 0 0
					CHANNELS 3 Zrotation Yrotation Xrotation
					JOINT LeftShoulder1
					{
						OFFSET 3.53937 -0.14262 -0.08662
						CHANNELS 3 Zrotation Yrotation Xrotation
						JOINT LeftArm
						{
							OFFSET 4.04833 -0.00133 0.12681
							CHANNELS 3 Zrotation Yrotation Xrotation
							JOINT LeftForeArm
							{
								OFFSET 10.33880 -0.01036 -0.55515
								CHANNELS 3 Zrotation Yrotation Xrotation
								JOINT LeftHand
								{
									OFFSET 8.69677 0.07543 0.40060
									CHANNELS 3 Zrotation Yrotation Xrotation
									End Site
									{
										OFFSET 5.28377 -0.21905 0.59205
									}
								}
							}
						}
					}
				}
				JOINT RightShoulderDummy
				{
					OFFSET 0 0 0
					CHANNELS 3 Zrotation Yrotation Xrotation
					JOINT RightShoulder
					{
						OFFSET -3.53937 -0.14262 -0.08660
						CHANNELS 3 Zrotation Yrotation Xrotation
						JOINT RightArm
						{
							OFFSET -4.04833 -0.00133 0.12683
							CHANNELS 3 Zrotation Yrotation Xrotation
							JOINT RightForeArm
							{
								OFFSET -10.37987 -0.01039 -0.55511
								CHANNELS 3 Zrotation Yrotation Xrotation
								JOINT RightHand
								{
									OFFSET -8.67398 0.07538 0.40058
									CHANNELS 3 Zrotation Yrotation Xrotation
									End Site
									{
										OFFSET -5.24810 -0.21916 0.59204
									}
								}
							}
						}
					}
				}
			}
		}
	}
	JOINT LeftUpLegDummy
	{
		OFFSET 0 0 0
		CHANNELS 3 Zrotation Yrotation Xrotation
		JOINT LeftUpLeg
		{
			OFFSET 3.52197 -3.41223 0.04002
			CHANNELS 3 Zrotation Yrotation Xrotation
			JOINT LeftLeg
			{
				OFFSET -0.00012 -17.42399 1.60337
				CHANNELS 3 Zrotation Yrotation Xrotation
				JOINT LeftFoot
				{
					OFFSET -0.09972 -16.50070 -1.63802
					CHANNELS 3 Zrotation Yrotation Xrotation
					JOINT LeftToes
					{
						OFFSET -0.01575 -1.73823 3.34611
						CHANNELS 3 Zrotation Yrotation Xrotation
						End Site
						{
							OFFSET 0.03150 -0.01868 3.85031
						}
					}
				}
			}
		}
	}
}
MOTION
Frames: 16
Frame Time: 0.033333
-0.1324 40.1768 -2.8946 -1.0121 2.6665 -1.4608 0.0000 0.0000 0.0000 -0.6815 -2.6817 2.3769 -2.8399 -14.0039 2.6790 1.8700 -0.1510 -2.5948 0.0000 -0.0000 0.0000 0.0000 0.0000 0.0000 0.0412 -0.2889 0.9150 3.6303 -0.9855 0.0560 -0.0000 0.0000 -0.0000 2.9435 -1.4560 -1.4262 -0.0000 0.0000 -0.0000 -34.2026 -2.6223 2.4648 -45.3543 -13.4984 -17.7784 -10.3162 5.1057 48.9212 14.2601 -2.9259 -0.9944 -0.0000 0.0000 -0.0000 34.9671 5.2164 3.5744 40.2865 5.4051 -16.6441 10.6684 -0.7020 25.4072 -12.5077 2.0921 -0.7897 0.0000 0.0000 0.0000 3.2714 2.3382 0.5609 0.1951 -2.0253 4.7728 0.7786 -0.0269 -3.7628 0.0000 0.0000 -0.0000
-0.1367 40.1768 -2.9031 -1.0199 2.5169 -1.4946 0.0000 0.0000 0.0000 -0.6856 -2.6980 2.3652 -2.7981 -13.8395 2.7037 1.8091 -0.1470 -2.5947 0.0000 -0.0000 0.0000 0.0000 0.0000 0.0000 0.0320 -0.2580 0.9621 3.6596 -0.9568 -0.0018 -0.0000 0.0000 -0.0000 2.7505 -1.5842 -1.4718 -0.0000 0.0000 -0.0000 -34.2455 -2.6376 2.4737 -45.3321 -13.4629 -17.7342 -10.3517 5.1063 48.8889 14.2023 -2.9553 -0.9991 -0.0000 0.0000 -0.0000 34.8316 5.1757 3.5457 40.4503 5.3830 -16.7369 10.6194 -0.6598 25.4752 -12.3039 1.9124 -0.7587 0.0000 0.0000 0.0000 3.2925 2.3616 0.5992 0.2049 -1.9097 4.7912 0.7207 -0.0232 -3.7753 0.0000 0.0000 -0.0000
-0.1444 40.1768 -2.9263 -1.0245 2.2510 -1.5310 0.0000 0.0000 0.0000 -0.6999 -2.7274 2.2902 -2.7328 -13.5479 2.7839 1.7520 -0.1434 -2.5943 0.0000 -0.0000 0.0000 0.0000 0.0000 0.0000 -0.0304 -0.2224 0.9787 3.7489 -0.9331 -0.0323 -0.0000 0.0000 -0.0000 2.4921 -1.6296 -1.5057 -0.0000 0.0000 -0.0000 -34.3264 -2.6853 2.4979 -45.2910 -13.4218 -17.6299 -10.4180 5.1071 48.8324 14.2632 -3.0566 -1.0141 -0.0000 0.0000 -0.0000 34.6606 5.1329 3.5133 40.6013 5.4039 -16.8375 10.5744 -0.6693 25.5154 -12.0417 1.9147 -0.7422 0.0000 0.0000 0.0000 3.3116 2.3861 0.6250 0.2360 -1.6816 4.8289 0.6593 -0.0192 -3.7857 0.0000 0.0000 -0.0000
-0.1528 40.1768 -2.9557 -1.0407 2.0047 -1.5621 0.0000 0.0000 0.0000 -0.6900 -2.7345 2.2072 -2.6864 -13.3102 2.8573 1.7351 -0.1423 -2.5836 0.0000 -0.0000 0.0000 0.0000 0.0000 0.0000 -0.1205 -0.2344 0.9342 3.8705 -0.9662 0.0290 -0.0000 0.0000 -0.0000 2.3619 -1.5487 -1.4941 -0.0000 0.0000 -0.0000 -34.4252 -2.7179 2.5173 -45.2389 -13.4370 -17.5281 -10.4707 5.1079 48.7856 14.5723 -3.1363 -1.0463 -0.0000 0.0000 -0.0000 34.5336 5.1151 3.4949 40.6611 5.5037 -16.8411 10.5755 -0.7401 25.5199 -12.0305 2.2226 -0.7713 0.0000 0.0000 0.0000 3.3230 2.3797 0.6245 0.3077 -1.4414 4.8789 0.6093 -0.0160 -3.7982 0.0000 0.0000 -0.0000
-0.1618 40.1753 -2.9802 -1.0892 1.8022 -1.6152 0.0000 0.0000 0.0000 -0.6234 -2.6933 2.1948 -2.6719 -13.1618 2.8624 1.7087 -0.1407 -2.5431 0.0000 -0.0000 0.0000 0.0000 0.0000 0.0000 -0.1883 -0.2749 0.9089 3.9981 -1.0320 0.1234 -0.0000 0.0000 -0.0000 2.3650 -1.5358 -1.4854 -0.0000 0.0000 -0.0000 -34.5284 -2.6859 2.5108 -45.1917 -13.5399 -17.5109 -10.4662 5.1062 48.8448 14.9337 -3.2407 -1.0859 -0.0000 0.0000 -0.0000 34.4035 5.0972 3.4763 40.7564 5.5969 -16.7700 10.5950 -0.7208 25.4832 -12.2167 2.3598 -0.7969 0.0000 0.0000 0.0000 3.3594 2.3667 0.6389 0.4015 -1.2384 4.9463 0.5467 -0.0120 -3.8315 0.0000 0.0000 -0.0000
-0.1709 40.1732 -3.0007 -1.1466 1.5600 -1.6821 0.0000 0.0000 0.0000 -0.5384 -2.6318 2.2052 -2.6683 -12.9758 2.8553 1.6469 -0.1369 -2.5072 0.0000 -0.0000 0.0000 0.0000 0.0000 0.0000 -0.2205 -0.2751 0.9610 4.1005 -1.0517 0.1639 -0.0000 0.0000 -0.0000 2.4148 -1.6592 -1.4851 -0.0000 0.0000 -0.0000 -34.6110 -2.6185 2.4887 -45.1645 -13.6957 -17.5751 -10.4135 5.1007 49.0544 15.1037 -3.5339 -1.1348 -0.0000 0.0000 -0.0000 34.2937 5.0729 3.4570 40.8899 5.5826 -16.6931 10.6090 -0.5286 25.3265 -12.3969 2.0679 -0.7800 0.0000 0.0000 0.0000 3.4187 2.3803 0.6818 0.4767 -1.0241 5.0148 0.4614 -0.0065 -3.8756 0.0000 0.0000 -0.0000
-0.1768 40.1714 -3.0246 -1.1763 1.2409 -1.7193 0.0000 0.0000 0.0000 -0.4999 -2.6025 2.1322 -2.6462 -12.6870 2.9242 1.5873 -0.1331 -2.4993 0.0000 -0.0000 0.0000 0.0000 0.0000 0.0000 -0.2051 -0.2285 1.0422 4.1096 -1.0056 0.1417 -0.0000 0.0000 -0.0000 2.4826 -1.7865 -1.4324 -0.0000 0.0000 -0.0000 -34.6375 -2.5768 2.4734 -45.1648 -13.8289 -17.6215 -10.3765 5.0944 49.2818 15.0810 -3.9358 -1.1825 -0.0000 0.0000 -0.0000 34.2828 5.0659 3.4532 40.9423 5.5278 -16.6689 10.6168 -0.3640 25.1269 -12.5854 1.7696 -0.7622 0.0000 0.0000 0.0000 3.4585 2.4063 0.7134 0.5282 -0.7479 5.0591 0.3633 -0.0002 -3.9052 0.0000 0.0000 -0.0000
-0.1781 40.1702 -3.0521 -1.1925 0.9353 -1.7125 0.0000 0.0000 0.0000 -0.4943 -2.6015 1.9934 -2.6062 -12.4100 3.0212 1.5542 -0.1310 -2.4855 0.0000 -0.0000 0.0000 0.0000 0.0000 0.0000 -0.1157 -0.2117 1.0637 3.9874 -0.9690 0.1366 -0.0000 0.0000 -0.0000 2.5961 -1.8287 -1.3441 -0.0000 0.0000 -0.0000 -34.5827 -2.5594 2.4629 -45.2097 -13.8996 -17.5795 -10.3942 5.0925 49.3397 15.0112 -4.1057 -1.1976 -0.0000 0.0000 -0.0000 34.3575 5.0779 3.4646 40.9062 5.5797 -16.7301 10.6012 -0.4424 25.1430 -12.7924 1.8631 -0.7846 0.0000 0.0000 0.0000 3.4760 2.4218 0.6917 0.5752 -0.4696 5.1000 0.2845 0.0049 -3.9246 0.0000 0.0000 -0.0000
-0.1797 40.1696 -3.0780 -1.2306 0.7270 -1.6939 0.0000 0.0000 0.0000 -0.4562 -2.5781 1.9008 -2.5731 -12.2447 3.0248 1.5282 -0.1295 -2.4300 0.0000 -0.0000 0.0000 0.0000 0.0000 0.0000 0.0043 -0.2642 0.9988 3.8257 -1.0009 0.2228 -0.0000 0.0000 -0.0000 2.7226 -1.8300 -1.3406 -0.0000 0.0000 -0.0000 -34.4740 -2.5342 2.4461 -45.3017 -13.9315 -17.4875 -10.4358 5.0959 49.2061 14.9712 -3.9080 -1.1701 -0.0000 0.0000 -0.0000 34.4645 5.0929 3.4799 40.8390 5.7078 -16.8389 10.5467 -0.6182 25.4129 -12.7362 2.0814 -0.8034 0.0000 0.0000 0.0000 3.5146 2.4428 0.6236 0.6132 -0.2819 5.1823 0.2585 0.0066 -3.9549 0.0000 0.0000 -0.0000
-0.1858 40.1693 -3.1021 -1.2776 0.5643 -1.6918 0.0000 0.0000 0.0000 -0.3887 -2.5288 1.8743 -2.5501 -12.1193 2.9474 1.5004 -0.1279 -2.3571 0.0000 -0.0000 0.0000 0.0000 0.0000 0.0000 0.0366 -0.3213 0.9122 3.7813 -1.0572 0.3546 -0.0000 0.0000 -0.0000 2.7683 -1.8314 -1.4437 -0.0000 0.0000 -0.0000 -34.4116 -2.5254 2.4387 -45.3698 -13.9457 -17.4122 -10.4688 5.1011 49.0150 14.9595 -3.5996 -1.1316 -0.0000 0.0000 -0.0000 34.6091 5.1178 3.5026 40.6937 5.7512 -16.9074 10.4939 -0.6386 25.6322 -12.2959 2.0409 -0.7710 0.0000 0.0000 0.0000 3.5745 2.4806 0.5578 0.6341 -0.1543 5.2868 0.2666 0.0061 -3.9865 0.0000 0.0000 -0.0000
-0.1931 40.1688 -3.1288 -1.2994 0.3420 -1.7060 0.0000 0.0000 0.0000 -0.3557 -2.5076 1.8339 -2.5078 -11.9160 2.9150 1.4675 -0.1259 -2.3043 0.0000 -0.0000 0.0000 0.0000 0.0000 0.0000 -0.0412 -0.3080 0.9175 3.8747 -1.0582 0.3700 -0.0000 0.0000 -0.0000 2.7086 -1.8378 -1.4998 -0.0000 0.0000 -0.0000 -34.4658 -2.5667 2.4587 -45.3375 -13.9125 -17.3463 -10.5142 5.1043 48.8904 14.9752 -3.4510 -1.1147 -0.0000 0.0000 -0.0000 34.7181 5.1481 3.5245 40.5041 5.7049 -16.9228 10.4903 -0.6177 25.6396 -11.9273 1.9217 -0.7356 0.0000 0.0000 0.0000 3.6117 2.5115 0.5381 0.6597 0.0281 5.3453 0.2442 0.0075 -3.9969 0.0000 0.0000 -0.0000
-0.1957 40.1677 -3.1580 -1.3107 0.0498 -1.7295 0.0000 0.0000 0.0000 -0.3693 -2.5360 1.7484 -2.4263 -11.6143 2.9728 1.4039 -0.1219 -2.2723 0.0000 -0.0000 0.0000 0.0000 0.0000 0.0000 -0.0867 -0.2487 1.0694 3.9456 -1.0024 0.1910 -0.0000 0.0000 -0.0000 2.6335 -1.8591 -1.4167 -0.0000 0.0000 -0.0000 -34.5446 -2.6055 2.4793 -45.2652 -13.8074 -17.2524 -10.5875 5.1039 48.8727 15.0323 -3.4605 -1.1203 -0.0000 0.0000 -0.0000 34.6018 5.1365 3.5096 40.5263 5.7147 -16.9521 10.5123 -0.7923 25.6485 -12.0388 2.0649 -0.7567 0.0000 0.0000 0.0000 3.6304 2.5324 0.5521 0.7007 0.2871 5.3733 0.1738 0.0120 -4.0128 0.0000 0.0000 -0.0000
-0.1920 40.1652 -3.1860 -1.3414 -0.2506 -1.7607 0.0000 0.0000 0.0000 -0.3952 -2.5895 1.6577 -2.3105 -11.2329 3.0610 1.3278 -0.1171 -2.2590 0.0000 -0.0000 0.0000 0.0000 0.0000 0.0000 -0.0024 -0.2293 1.2780 3.8708 -0.9650 -0.0105 -0.0000 0.0000 -0.0000 2.6098 -1.8320 -1.3443 -0.0000 0.0000 -0.0000 -34.4951 -2.5715 2.4624 -45.2839 -13.6762 -17.1581 -10.6456 5.1018 48.9186 15.1141 -3.5168 -1.1335 -0.0000 0.0000 -0.0000 34.2752 5.0671 3.4531 40.8417 5.8140 -16.9811 10.5135 -0.9985 25.7938 -12.3133 2.3242 -0.7999 0.0000 0.0000 0.0000 3.6679 2.5724 0.5429 0.7321 0.5467 5.4767 0.1076 0.0163 -4.0889 0.0000 0.0000 -0.0000
-0.1818 40.1599 -3.2134 -1.3693 -0.5669 -1.7932 0.0000 0.0000 0.0000 -0.4502 -2.6720 1.5652 -2.1592 -10.7522 3.1570 1.3090 -0.1158 -2.2767 0.0000 -0.0000 0.0000 0.0000 0.0000 0.0000 0.1105 -0.2767 1.4035 3.7316 -0.9928 -0.0017 -0.0000 0.0000 -0.0000 2.5970 -1.6431 -1.4743 -0.0000 0.0000 -0.0000 -34.3574 -2.5093 2.4289 -45.3706 -13.5730 -17.1261 -10.6525 5.1022 48.9024 15.1203 -3.5310 -1.1358 -0.0000 0.0000 -0.0000 34.0792 5.0122 3.4141 41.0738 5.9023 -16.9173 10.5071 -0.9069 25.8776 -12.3106 2.3692 -0.8042 0.0000 0.0000 0.0000 3.6971 2.6194 0.4911 0.7562 0.8123 5.6826 0.0611 0.0193 -4.2227 0.0000 0.0000 -0.0000
-0.1623 40.1542 -3.2455 -1.3604 -1.0098 -1.8162 0.0000 0.0000 0.0000 -0.5680 -2.7929 1.4165 -1.9780 -10.1412 3.2995 1.3284 -0.1170 -2.3042 0.0000 -0.0000 0.0000 0.0000 0.0000 0.0000 0.1411 -0.3245 1.4608 3.6528 -1.0340 0.1618 -0.0000 0.0000 -0.0000 2.5835 -1.3910 -1.7777 -0.0000 0.0000 -0.0000 -34.3102 -2.5229 2.4315 -45.3855 -13.4664 -17.1481 -10.6465 5.1076 48.7214 14.9516 -3.3732 -1.1034 -0.0000 0.0000 -0.0000 34.2388 5.0420 3.4399 40.8907 5.9200 -16.7719 10.5303 -0.5571 25.7483 -12.2614 2.2720 -0.7913 0.0000 0.0000 0.0000 3.6632 2.6309 0.4374 0.8188 1.2147 5.9021 -0.0287 0.0251 -4.3663 0.0000 0.0000 -0.0000
-0.1317 40.1490 -3.2859 -1.3384 -1.6785 -1.8177 0.0000 0.0000 0.0000 -0.6965 -2.8828 1.1605 -1.8216 -9.3666 3.5181 1.2989 -0.1151 -2.3118 0.0000 -0.0000 0.0000 0.0000 0.0000 0.0000 0.1660 -0.3059 1.6213 3.5824 -1.0027 0.1692 -0.0000 0.0000 -0.0000 2.6867 -1.3903 -2.0797 -0.0000 0.0000 -0.0000 -34.3449 -2.6046 2.4665 -45.3291 -13.2960 -17.1637 -10.6730 5.1147 48.4683 14.7383 -3.0365 -1.0466 -0.0000 0.0000 -0.0000 34.5428 5.1103 3.4938 40.5246 5.8540 -16.6344 10.5797 -0.1630 25.5165 -12.4975 2.2602 -0.8059 0.0000 0.0000 0.0000 3.5978 2.6311 0.3813 0.9272 1.8425 6.1305 -0.1917 0.0356 -4.5315 0.0000 0.0000 -0.0000
